<svg xmlns="http://www.w3.org/2000/svg" viewBox="32.25 71.75 328 56.5" width="328" height="56.5">
<g transform="translate(0,200) scale(0.02500000,-0.02500000)" stroke="none">
<g fill="#010101">
<path d="M3222 5109 c-23 -4 -47 -11 -53 -15 -6 -3 -57 -10 -114 -14 -57 -5
-127 -16 -156 -24 -29 -9 -80 -16 -114 -16 -34 0 -95 -9 -136 -19 -41 -10
-114 -21 -164 -24 -49 -3 -110 -13 -134 -21 -24 -9 -73 -16 -110 -16 -37 0
-91 -7 -121 -16 -30 -8 -80 -17 -110 -20 -30 -3 -80 -17 -110 -32 -97 -47
-220 -182 -220 -241 0 -12 -9 -38 -20 -58 -11 -21 -20 -52 -20 -69 0 -18 -9
-51 -20 -75 -11 -24 -20 -60 -20 -79 0 -19 -9 -48 -20 -65 -11 -16 -20 -45
-20 -63 0 -17 -9 -49 -20 -69 -11 -21 -20 -54 -20 -75 0 -20 -6 -49 -14 -65
-8 -15 -22 -62 -30 -103 -24 -121 -43 -199 -60 -241 -9 -22 -16 -48 -16 -60 0
-11 -9 -37 -20 -59 -11 -22 -20 -53 -20 -69 0 -17 -10 -49 -21 -71 -19 -36
-21 -59 -23 -204 l-1 -163 30 -44 c36 -52 73 -85 131 -116 39 -21 56 -23 191
-23 187 0 360 29 410 69 38 30 68 108 118 311 8 30 21 73 29 95 8 22 15 49 16
60 0 11 9 44 20 73 11 29 20 66 20 82 0 40 31 70 74 70 19 0 80 9 136 20 56
11 123 20 148 20 34 0 58 7 83 24 37 25 45 46 101 241 11 39 28 97 39 130 10
33 19 68 19 78 0 11 7 33 15 50 8 18 18 50 23 72 l8 40 79 7 c43 4 93 13 109
19 17 6 74 15 127 18 78 6 101 11 124 30 34 26 74 112 75 159 0 17 9 49 20 69
11 21 20 53 20 71 0 18 9 50 20 72 11 22 20 52 20 69 0 16 9 48 20 72 23 51
28 187 8 207 -14 14 -257 15 -326 1z"/>
<path d="M9515 4521 c-27 -4 -68 -16 -90 -28 -88 -46 -123 -113 -134 -253 l-6
-85 -50 -3 c-61 -4 -75 -19 -75 -83 0 -54 17 -74 54 -65 14 3 36 2 50 -4 l26
-10 0 -288 c0 -217 3 -292 13 -306 10 -14 25 -16 87 -14 l75 3 3 300 c1 181 6
303 12 309 6 6 38 9 71 8 35 -2 67 2 75 9 17 14 19 110 2 127 -7 7 -39 12 -74
12 -80 0 -89 10 -81 98 7 86 10 92 54 121 31 20 44 22 89 17 42 -5 53 -3 58
10 11 28 6 101 -6 112 -18 15 -95 21 -153 13z"/>
<path d="M12123 4509 l-23 -8 -2 -528 c-1 -561 -1 -574 11 -586 7 -7 81 -11
142 -8 11 1 19 13 23 36 8 40 34 47 54 15 6 -11 34 -31 62 -45 39 -20 64 -25
117 -25 129 1 233 71 295 199 31 63 32 73 36 201 3 123 1 141 -20 198 -32 83
-86 146 -152 177 -43 20 -68 25 -132 25 -89 0 -133 -17 -194 -76 -20 -19 -41
-34 -48 -34 -9 0 -12 55 -12 219 0 180 -3 222 -15 234 -16 17 -106 21 -142 6z
m418 -500 c107 -35 152 -193 103 -358 -21 -70 -65 -117 -129 -137 -52 -17 -58
-17 -110 0 -44 14 -62 26 -90 63 l-35 46 0 133 0 133 43 52 c59 73 134 96 218
68z"/>
<path d="M5359 4477 c-29 -19 -34 -29 -37 -68 -4 -66 19 -91 91 -97 50 -4 58
-2 81 21 20 20 26 36 26 69 0 51 -5 60 -47 82 -44 22 -74 20 -114 -7z"/>
<path d="M13544 4482 c-17 -11 -36 -33 -43 -50 -11 -26 -10 -35 8 -70 24 -46
73 -65 129 -49 40 12 77 67 68 102 -18 71 -101 105 -162 67z"/>
<path d="M3988 4439 c-17 -9 -18 -45 -18 -522 0 -386 3 -516 12 -525 16 -16
130 -16 146 0 9 9 12 109 12 390 l0 378 25 -16 c14 -9 28 -28 31 -43 8 -30 38
-108 65 -167 10 -23 19 -46 19 -53 0 -6 9 -28 20 -48 11 -21 20 -45 20 -53 0
-8 9 -28 20 -45 11 -16 20 -37 20 -45 0 -8 9 -32 20 -53 11 -20 20 -42 20 -48
0 -12 22 -63 68 -159 27 -54 28 -55 72 -56 36 0 50 5 73 27 15 15 27 38 27 51
0 13 9 37 20 53 11 17 20 37 20 45 0 8 9 32 20 53 11 20 20 45 20 54 0 10 9
32 20 48 11 17 20 37 20 45 0 8 9 32 20 53 11 20 20 45 20 54 0 10 9 32 20 48
11 17 20 37 20 45 0 8 9 33 20 55 11 22 19 47 20 56 0 8 7 24 15 35 8 10 19
36 25 57 11 38 29 50 31 20 0 -10 0 -187 0 -393 -1 -218 2 -381 8 -389 12 -18
137 -23 152 -5 10 13 15 1037 4 1054 -3 6 -52 10 -110 10 -116 0 -120 -2 -149
-71 -10 -24 -27 -62 -37 -85 -10 -23 -19 -46 -19 -52 0 -6 -10 -33 -21 -59
-47 -105 -57 -129 -64 -153 -4 -14 -14 -34 -21 -45 -8 -11 -14 -26 -14 -35 0
-8 -7 -28 -16 -45 -16 -31 -33 -73 -65 -164 -24 -68 -47 -95 -66 -80 -7 6 -13
22 -13 35 0 13 -9 43 -19 66 -10 24 -29 68 -41 98 -12 30 -31 74 -41 98 -10
23 -19 48 -19 55 0 7 -9 29 -20 50 -11 20 -20 43 -20 49 -1 7 -9 31 -20 53
-11 22 -19 46 -20 53 0 6 -9 29 -20 49 -11 21 -20 43 -20 50 0 11 -20 56 -49
113 -6 12 -32 16 -117 17 -62 2 -117 -2 -126 -8z"/>
<path d="M10693 4443 c-10 -4 -13 -119 -13 -528 0 -406 3 -525 13 -532 6 -5
41 -9 76 -7 49 2 68 7 78 20 10 13 13 69 13 216 0 185 1 198 19 208 11 5 87
10 173 10 107 0 158 4 166 12 7 7 12 33 12 59 0 74 -13 79 -196 79 -111 0
-154 3 -162 13 -6 7 -12 70 -13 146 -2 122 0 135 17 148 15 11 57 14 188 12
193 -2 196 0 196 77 0 75 3 74 -293 73 -144 0 -268 -3 -274 -6z"/>
<path d="M9860 4336 l-55 -22 -5 -80 -5 -79 -47 -3 c-25 -2 -52 -9 -58 -17 -6
-7 -10 -38 -8 -72 l3 -58 55 -5 55 -5 5 -245 c5 -240 6 -246 31 -290 19 -33
40 -52 80 -73 48 -25 62 -28 135 -25 103 4 114 12 114 89 0 32 -5 61 -11 64
-5 4 -23 2 -39 -5 -40 -17 -97 3 -113 38 -17 42 -21 426 -4 440 7 6 46 12 87
14 l75 3 3 49 c6 92 2 96 -83 96 -92 0 -100 9 -93 116 3 44 1 77 -6 84 -16 16
-56 11 -116 -14z"/>
<path d="M5900 4137 c-170 -69 -255 -199 -255 -392 0 -121 29 -197 101 -271
73 -75 144 -106 259 -111 77 -4 100 -1 160 19 l70 25 3 71 c3 65 1 72 -16 72
-11 0 -25 -6 -31 -14 -6 -7 -38 -19 -70 -26 -105 -22 -203 14 -259 95 -25 38
-27 47 -27 150 0 104 1 112 28 152 60 87 168 129 269 104 29 -8 61 -20 70 -28
28 -24 38 -6 38 67 0 96 -13 104 -170 107 -99 2 -123 0 -170 -20z"/>
<path d="M6660 4131 c-25 -15 -51 -40 -58 -55 -20 -45 -52 -28 -52 28 0 35
-20 46 -85 46 -100 0 -95 21 -95 -386 0 -268 3 -354 13 -368 10 -14 25 -16 87
-14 l75 3 6 230 c5 217 7 233 29 278 14 27 42 61 64 78 35 25 48 29 108 29 76
0 72 -5 69 85 -2 32 -8 54 -19 63 -28 22 -93 14 -142 -17z"/>
<path d="M7125 4153 c-11 -3 -24 -9 -30 -13 -5 -4 -27 -13 -48 -20 -41 -13
-135 -99 -153 -140 -46 -100 -49 -115 -49 -220 0 -137 25 -209 101 -286 70
-73 144 -105 254 -111 260 -15 430 143 430 402 0 181 -79 312 -227 373 -43 18
-70 22 -155 21 -57 -1 -112 -4 -123 -6z m180 -144 c48 -13 78 -39 113 -98 23
-40 26 -54 26 -151 0 -97 -3 -111 -26 -151 -37 -62 -65 -85 -125 -99 -41 -9
-64 -9 -108 1 -48 11 -63 20 -99 61 -56 64 -73 143 -55 254 10 63 17 79 53
120 61 69 129 88 221 63z"/>
<path d="M7885 4136 c-64 -25 -139 -88 -155 -131 -6 -15 -10 -50 -10 -80 0
-43 6 -61 33 -101 28 -42 80 -83 127 -100 8 -3 34 -14 58 -25 23 -10 48 -19
55 -19 20 0 81 -48 89 -70 4 -11 5 -34 1 -51 -12 -62 -131 -87 -245 -51 -31
10 -65 25 -75 34 -32 29 -44 9 -41 -68 l3 -69 40 -20 c34 -17 60 -20 170 -20
119 0 134 3 185 27 71 34 114 80 135 145 16 48 16 56 1 105 -9 29 -26 64 -39
78 -29 33 -99 80 -118 80 -7 0 -27 9 -44 20 -16 11 -39 20 -51 20 -26 0 -85
44 -102 76 -29 55 45 114 144 114 30 0 65 -5 77 -12 12 -6 36 -14 54 -18 43
-10 55 6 51 66 -2 38 -8 51 -31 68 -24 18 -45 21 -140 23 -98 2 -120 0 -172
-21z"/>
<path d="M8620 4151 c-165 -56 -246 -150 -270 -313 -40 -269 102 -462 350
-475 132 -7 217 20 304 98 41 37 67 71 88 117 28 60 30 73 30 184 1 150 -21
215 -97 293 -76 79 -126 98 -265 101 -63 2 -126 -1 -140 -5z m184 -142 c119
-30 182 -218 125 -369 -27 -73 -62 -107 -128 -126 -45 -14 -63 -14 -110 -4
-108 23 -171 115 -171 250 0 186 120 291 284 249z"/>
<path d="M11459 4137 c-94 -32 -99 -38 -99 -113 0 -53 3 -64 17 -64 9 0 24 6
32 14 28 25 134 56 191 56 42 0 64 -6 90 -24 45 -31 78 -91 63 -114 -12 -21
-78 -38 -192 -51 -140 -16 -213 -57 -258 -145 -21 -42 -24 -60 -21 -120 3 -59
8 -79 33 -116 85 -126 289 -135 394 -18 33 37 51 31 51 -17 0 -19 6 -37 13
-42 21 -13 127 -10 139 4 7 8 10 112 9 304 -2 273 -3 294 -23 333 -29 58 -54
83 -114 111 -72 34 -226 35 -325 2z m299 -439 c2 -34 -4 -60 -21 -95 -30 -59
-49 -75 -110 -98 -42 -16 -53 -16 -88 -5 -55 19 -89 61 -89 112 0 32 7 47 34
74 22 22 44 34 63 34 15 1 55 7 88 15 33 7 74 13 90 12 28 -2 30 -5 33 -49z"/>
<path d="M13268 4130 c-26 -16 -54 -43 -63 -60 -22 -42 -45 -39 -45 6 0 63
-12 74 -85 74 -100 0 -95 18 -95 -390 0 -269 3 -350 13 -364 17 -23 132 -29
153 -8 11 10 14 60 14 225 l0 212 28 60 c20 42 41 69 70 88 36 26 48 29 104
25 l63 -3 3 70 c2 57 0 72 -14 82 -31 23 -95 15 -146 -17z"/>
<path d="M14079 4137 c-96 -38 -174 -109 -217 -197 -25 -52 -27 -63 -27 -195
0 -138 1 -141 30 -190 43 -72 106 -131 172 -162 52 -24 70 -27 168 -28 91 0
117 4 150 20 l40 20 0 65 c0 73 6 71 -90 44 -115 -32 -222 14 -278 120 -30 58
-30 173 -1 236 58 121 185 177 305 135 62 -22 69 -16 69 58 0 88 -6 91 -149
94 -100 2 -124 0 -172 -20z"/>
<path d="M5341 4136 c-8 -9 -11 -118 -9 -382 l3 -369 73 -3 c46 -2 79 2 88 9
12 9 14 75 14 375 0 416 8 384 -98 384 -38 0 -64 -5 -71 -14z"/>
<path d="M13521 4128 c-11 -33 -3 -730 9 -742 15 -15 129 -14 141 0 11 13 14
737 4 755 -4 5 -38 9 -76 9 -63 0 -70 -2 -78 -22z"/>
</g>
<g fill="#2b9280">
<path d="M3222 5109 c-23 -4 -47 -11 -53 -15 -6 -3 -57 -10 -114 -14 -57 -5
-127 -16 -156 -24 -29 -9 -80 -16 -114 -16 -34 0 -95 -9 -136 -19 -41 -10
-114 -21 -164 -24 -49 -3 -110 -13 -134 -21 -24 -9 -73 -16 -110 -16 -37 0
-91 -7 -121 -16 -30 -8 -80 -17 -110 -20 -30 -3 -80 -17 -110 -32 -97 -47
-220 -182 -220 -241 0 -12 -9 -38 -20 -58 -11 -21 -20 -52 -20 -69 0 -18 -9
-51 -20 -75 -11 -24 -20 -60 -20 -79 0 -19 -9 -48 -20 -65 -11 -16 -20 -45
-20 -63 0 -17 -9 -49 -20 -69 -11 -21 -20 -54 -20 -75 0 -20 -6 -49 -14 -65
-8 -15 -22 -62 -30 -103 -24 -121 -43 -199 -60 -241 -9 -22 -16 -48 -16 -60 0
-11 -9 -37 -20 -59 -11 -22 -20 -53 -20 -69 0 -17 -10 -49 -21 -71 -19 -36
-21 -59 -23 -204 l-1 -163 30 -44 c36 -52 73 -85 131 -116 39 -21 56 -23 191
-23 187 0 360 29 410 69 38 30 68 108 118 311 8 30 21 73 29 95 8 22 15 49 16
60 0 11 9 44 20 73 11 29 20 66 20 82 0 40 31 70 74 70 19 0 80 9 136 20 56
11 123 20 148 20 34 0 58 7 83 24 37 25 45 46 101 241 11 39 28 97 39 130 10
33 19 68 19 78 0 11 7 33 15 50 8 18 18 50 23 72 l8 40 79 7 c43 4 93 13 109
19 17 6 74 15 127 18 78 6 101 11 124 30 34 26 74 112 75 159 0 17 9 49 20 69
11 21 20 53 20 71 0 18 9 50 20 72 11 22 20 52 20 69 0 16 9 48 20 72 23 51
28 187 8 207 -14 14 -257 15 -326 1z"/>
</g>
<g fill="#a0dad1">
<path d="M3222 5109 c-23 -4 -47 -11 -53 -15 -6 -3 -57 -10 -114 -14 -57 -5
-127 -16 -156 -24 -29 -9 -80 -16 -114 -16 -34 0 -95 -9 -136 -19 -41 -10
-114 -21 -164 -24 -49 -3 -110 -13 -134 -21 -24 -9 -73 -16 -110 -16 -37 0
-91 -7 -121 -16 -30 -8 -80 -17 -110 -20 -30 -3 -80 -17 -110 -32 -97 -47
-220 -182 -220 -241 0 -12 -9 -38 -20 -58 -11 -21 -20 -52 -20 -69 0 -18 -9
-51 -20 -75 -11 -24 -20 -60 -20 -79 0 -19 -9 -48 -20 -65 -11 -16 -20 -45
-20 -63 0 -17 -9 -49 -20 -69 -11 -21 -20 -55 -20 -76 0 -21 -6 -48 -14 -60
-7 -12 -17 -42 -20 -66 -5 -36 -4 -42 8 -38 8 3 17 1 19 -6 2 -7 3 -4 1 7 -1
10 1 28 5 40 11 26 74 96 88 96 6 0 21 8 34 18 13 11 45 22 72 25 26 4 60 13
75 21 15 7 61 16 102 20 41 4 101 14 134 22 32 8 60 13 62 11 9 -9 -106 -37
-177 -43 -43 -4 -83 -10 -89 -14 -18 -11 -3 -30 25 -30 29 0 43 -18 21 -26
-18 -7 -22 -34 -6 -34 6 0 10 -10 10 -22 0 -50 15 -55 167 -63 119 -7 136 -3
268 66 49 26 177 79 189 79 5 0 17 6 25 14 22 18 133 44 222 52 48 4 78 12 86
22 10 13 15 13 29 1 14 -11 18 -10 34 11 20 26 37 97 26 108 -4 3 -39 0 -79
-7 -114 -22 -162 -22 -62 -2 50 11 124 20 165 20 75 1 171 14 193 28 7 4 55
10 108 13 79 5 101 10 124 29 34 26 74 112 75 159 0 17 9 49 20 69 11 21 20
53 20 71 0 18 9 50 20 72 11 22 20 52 20 69 0 16 9 48 20 72 23 51 28 187 8
207 -14 14 -257 15 -326 1z m-597 -839 c-33 -5 -72 -13 -88 -19 -15 -6 -64
-13 -110 -15 -81 -5 -81 -5 -17 4 36 5 92 15 125 23 33 9 80 15 105 15 42 -1
41 -1 -15 -8z m-325 -56 c-25 -7 -56 -13 -70 -13 -18 1 -12 5 20 14 63 18 108
18 50 -1z m-117 -21 c-13 -2 -35 -2 -50 0 -16 2 -5 4 22 4 28 0 40 -2 28 -4z"/>
<path d="M2783 4040 c-7 -20 -18 -30 -31 -30 -11 0 -83 -31 -159 -69 -117 -59
-150 -82 -216 -144 -42 -41 -77 -79 -77 -84 0 -6 -19 -14 -42 -17 -24 -4 -50
-11 -57 -16 -16 -9 -8 -12 72 -25 20 -3 37 -9 37 -14 0 -9 103 3 205 24 41 8
96 15 122 15 78 0 114 31 142 122 12 40 30 96 38 123 26 82 33 127 18 121 -8
-3 -16 2 -19 10 -9 22 -21 17 -33 -16z"/>
<path d="M1590 4034 c0 -14 3 -14 15 -4 8 7 15 14 15 16 0 2 -7 4 -15 4 -8 0
-15 -7 -15 -16z"/>
<path d="M1466 3754 c-8 -31 1 -84 15 -84 5 0 9 25 9 55 0 58 -13 73 -24 29z"/>
<path d="M1596 3695 c-3 -9 -19 -18 -35 -21 -16 -4 -32 -13 -35 -21 -4 -8 -13
-13 -21 -9 -8 3 -15 1 -15 -4 0 -12 -22 -9 -31 4 -16 21 -38 -5 -45 -51 -7
-52 -16 -73 -38 -96 -13 -13 -20 -37 -17 -64 2 -22 26 -14 58 20 47 49 89 77
115 77 13 0 42 9 63 20 22 11 65 23 95 26 92 9 120 14 120 24 0 6 -21 10 -47
11 -73 2 -96 11 -104 42 -14 52 -50 75 -63 42z"/>
<path d="M2155 3625 c-27 -7 -90 -16 -140 -19 -49 -4 -112 -13 -140 -21 -27
-7 -84 -17 -125 -20 -41 -4 -101 -15 -133 -26 -31 -10 -65 -19 -75 -19 -9 0
-28 -9 -42 -20 -14 -11 -30 -20 -36 -20 -6 0 -41 -31 -77 -70 l-65 -70 -7 -74
c-9 -94 2 -213 20 -220 10 -3 13 3 12 21 -2 31 18 42 26 13 6 -23 22 -24 167
-10 109 10 542 14 582 4 25 -6 27 -3 33 32 4 22 15 65 26 97 10 31 19 66 19
78 0 11 6 32 14 47 8 15 17 46 21 67 4 22 15 64 26 93 10 29 19 65 19 80 0 15
4 34 10 42 20 31 -46 39 -135 15z m-34 -508 c-13 -13 -15 11 -4 40 7 16 8 15
11 -6 2 -13 -1 -28 -7 -34z"/>
<path d="M1537 2918 c-8 -5 -7 -8 3 -9 12 -1 147 0 244 1 11 0 17 3 14 6 -9 8
-248 10 -261 2z"/>
</g>
<g fill="#87ceb9">
<path d="M3222 5109 c-23 -4 -47 -11 -53 -15 -6 -3 -57 -10 -114 -14 -57 -5
-127 -16 -156 -24 -29 -9 -80 -16 -114 -16 -34 0 -95 -9 -136 -19 -41 -10
-114 -21 -164 -24 -49 -3 -101 -10 -115 -16 -19 -8 10 -10 115 -6 79 3 146 2
154 -3 19 -13 2 -22 -58 -29 l-49 -6 -7 -51 c-12 -100 -17 -126 -25 -126 -4 0
-10 -21 -13 -47 -4 -27 -9 -72 -13 -100 -4 -29 -10 -53 -15 -53 -5 0 -9 -10
-9 -22 0 -34 -23 -138 -31 -138 -4 0 -10 -16 -14 -36 -4 -24 -13 -38 -26 -41
-27 -7 -24 -23 5 -23 14 0 28 -4 31 -10 9 -15 -30 -27 -120 -38 -44 -5 -109
-16 -145 -25 -93 -22 -220 -39 -332 -44 -94 -5 -98 -4 -98 16 0 14 6 21 19 21
23 0 36 16 21 25 -5 3 -7 19 -3 35 3 20 1 30 -6 30 -8 0 -11 22 -10 70 1 43 6
70 13 70 7 0 11 25 12 68 0 75 22 192 35 192 5 0 9 7 9 16 0 30 -25 7 -30 -27
-4 -24 -10 -34 -23 -33 -14 2 -17 -7 -17 -48 0 -42 -3 -49 -17 -46 -13 2 -19
14 -21 40 -3 40 13 82 29 73 5 -4 9 4 9 17 0 39 12 68 26 68 8 0 14 8 14 17 0
14 -4 12 -25 -7 -33 -31 -75 -103 -75 -129 0 -12 -9 -38 -20 -58 -11 -21 -20
-52 -20 -69 0 -18 -9 -51 -20 -75 -11 -24 -20 -60 -20 -79 0 -19 -9 -48 -20
-65 -11 -16 -20 -45 -20 -63 0 -17 -9 -49 -20 -69 -11 -21 -20 -55 -20 -76 0
-21 -6 -48 -14 -60 -7 -12 -17 -42 -20 -66 -5 -36 -4 -42 8 -38 8 3 17 1 19
-6 2 -7 3 -4 1 7 -1 10 1 28 5 40 11 26 74 96 88 96 6 0 21 8 34 18 13 11 45
22 72 25 26 4 60 13 75 21 15 7 61 16 102 20 41 4 101 14 134 22 32 8 60 13
62 11 9 -9 -106 -37 -177 -43 -43 -4 -83 -10 -89 -14 -18 -11 -3 -30 25 -30
29 0 43 -18 21 -26 -18 -7 -22 -34 -6 -34 6 0 10 -10 10 -22 0 -50 15 -55 167
-63 119 -7 136 -3 268 66 49 26 177 79 189 79 5 0 17 6 25 14 22 18 133 44
222 52 48 4 78 12 86 22 10 13 15 13 29 1 14 -11 18 -10 34 11 20 26 37 97 26
108 -4 3 -39 0 -79 -7 -114 -22 -162 -22 -62 -2 50 11 124 20 165 20 75 1 171
14 193 28 7 4 55 10 108 13 79 5 101 10 124 29 34 26 74 112 75 159 0 17 9 49
20 69 11 21 20 53 20 71 0 18 9 50 20 72 11 22 20 52 20 69 0 16 9 48 20 72
23 51 28 187 8 207 -14 14 -257 15 -326 1z m161 -26 c-7 -2 -19 -2 -25 0 -7 3
-2 5 12 5 14 0 19 -2 13 -5z m147 -3 c0 -5 -4 -10 -10 -10 -5 0 -10 5 -10 10
0 6 5 10 10 10 6 0 10 -4 10 -10z m-412 -37 c-10 -2 -26 -2 -35 0 -10 3 -2 5
17 5 19 0 27 -2 18 -5z m-270 -40 c-10 -2 -28 -2 -40 0 -13 2 -5 4 17 4 22 1
32 -1 23 -4z m-1153 -529 c-6 -45 -18 -56 -29 -28 -9 24 -7 63 5 86 11 20 12
20 21 4 6 -10 7 -38 3 -62z m-41 -98 c3 -13 3 -38 0 -55 -5 -25 -9 -29 -20
-20 -15 12 -18 40 -8 77 8 29 20 28 28 -2z m1299 -23 c-7 -2 -19 -2 -25 0 -7
3 -2 5 12 5 14 0 19 -2 13 -5z m-328 -83 c-33 -5 -72 -13 -88 -19 -15 -6 -64
-13 -110 -15 -81 -5 -81 -5 -17 4 36 5 92 15 125 23 33 9 80 15 105 15 42 -1
41 -1 -15 -8z m-1015 -56 c0 -32 -4 -44 -12 -42 -17 6 -22 42 -8 67 16 31 20
26 20 -25z m690 0 c-25 -7 -56 -13 -70 -13 -18 1 -12 5 20 14 63 18 108 18 50
-1z m-117 -21 c-13 -2 -35 -2 -50 0 -16 2 -5 4 22 4 28 0 40 -2 28 -4z m-496
-38 c-11 -7 -25 -11 -33 -8 -22 8 -6 23 24 23 25 -1 26 -2 9 -15z m-119 -60
c-6 -14 -15 -25 -20 -25 -11 0 -10 7 2 31 16 28 32 23 18 -6z"/>
<path d="M2118 4943 c7 -3 16 -2 19 1 4 3 -2 6 -13 5 -11 0 -14 -3 -6 -6z"/>
<path d="M1924 4905 c-18 -14 -18 -14 7 -15 15 0 29 7 33 15 7 19 -14 19 -40
0z"/>
<path d="M1851 4871 c-7 -5 -10 -14 -6 -20 5 -9 10 -9 21 0 26 22 14 38 -15
20z"/>
<path d="M1800 4825 c-10 -12 -10 -15 4 -15 9 0 16 7 16 15 0 8 -2 15 -4 15
-2 0 -9 -7 -16 -15z"/>
<path d="M2783 4040 c-7 -20 -18 -30 -31 -30 -11 0 -83 -31 -159 -69 -117 -59
-150 -82 -216 -144 -42 -41 -77 -79 -77 -84 0 -6 -19 -14 -42 -17 -24 -4 -50
-11 -57 -16 -16 -9 -8 -12 72 -25 20 -3 37 -9 37 -14 0 -9 103 3 205 24 41 8
96 15 122 15 78 0 114 31 142 122 12 40 30 96 38 123 26 82 33 127 18 121 -8
-3 -16 2 -19 10 -9 22 -21 17 -33 -16z"/>
<path d="M1590 4034 c0 -14 3 -14 15 -4 8 7 15 14 15 16 0 2 -7 4 -15 4 -8 0
-15 -7 -15 -16z"/>
<path d="M1466 3754 c-8 -31 1 -84 15 -84 5 0 9 25 9 55 0 58 -13 73 -24 29z"/>
<path d="M1596 3695 c-3 -9 -19 -18 -35 -21 -16 -4 -32 -13 -35 -21 -4 -8 -13
-13 -21 -9 -8 3 -15 1 -15 -4 0 -12 -22 -9 -31 4 -16 21 -38 -5 -45 -51 -7
-52 -16 -73 -38 -96 -13 -13 -20 -37 -17 -64 2 -22 26 -14 58 20 47 49 89 77
115 77 13 0 42 9 63 20 22 11 65 23 95 26 92 9 120 14 120 24 0 6 -21 10 -47
11 -73 2 -96 11 -104 42 -14 52 -50 75 -63 42z"/>
<path d="M2155 3625 c-27 -7 -90 -16 -140 -19 -49 -4 -112 -13 -140 -21 -27
-7 -84 -17 -125 -20 -41 -4 -101 -15 -133 -26 -31 -10 -65 -19 -75 -19 -9 0
-28 -9 -42 -20 -14 -11 -30 -20 -36 -20 -6 0 -41 -31 -77 -70 l-65 -70 -7 -74
c-9 -94 2 -213 20 -220 10 -3 13 3 12 21 -2 31 18 42 26 13 6 -23 22 -24 167
-10 109 10 542 14 582 4 25 -6 27 -3 33 32 4 22 15 65 26 97 10 31 19 66 19
78 0 11 6 32 14 47 8 15 17 46 21 67 4 22 15 64 26 93 10 29 19 65 19 80 0 15
4 34 10 42 20 31 -46 39 -135 15z m-34 -508 c-13 -13 -15 11 -4 40 7 16 8 15
11 -6 2 -13 -1 -28 -7 -34z"/>
<path d="M1537 2918 c-8 -5 -7 -8 3 -9 12 -1 147 0 244 1 11 0 17 3 14 6 -9 8
-248 10 -261 2z"/>
</g>
<g fill="#99d2a1">
<path d="M3300 5100 c-11 -11 -23 -20 -27 -20 -5 0 -24 -5 -43 -10 -30 -8 -39
-18 -59 -65 -13 -30 -27 -55 -32 -55 -4 0 -13 -25 -20 -55 -7 -30 -16 -55 -21
-55 -4 0 -8 -9 -8 -20 0 -11 -4 -20 -10 -20 -5 0 -10 -9 -10 -20 0 -11 -4 -20
-10 -20 -5 0 -10 -9 -10 -20 0 -11 -4 -20 -10 -20 -5 0 -10 -9 -10 -20 0 -11
-4 -20 -10 -20 -5 0 -10 -9 -10 -20 0 -11 -4 -20 -10 -20 -5 0 -10 -9 -10 -20
0 -11 -4 -20 -10 -20 -5 0 -10 -9 -10 -20 0 -11 -4 -20 -10 -20 -5 0 -10 -9
-10 -20 0 -11 -4 -20 -10 -20 -5 0 -10 -9 -10 -20 0 -11 -4 -20 -10 -20 -5 0
-10 -9 -10 -20 0 -11 -4 -20 -10 -20 -5 0 -10 -13 -10 -29 0 -21 -6 -32 -20
-36 -27 -9 -25 -33 3 -38 12 -2 0 -5 -28 -6 -27 -1 -86 -10 -130 -21 -44 -11
-98 -20 -121 -20 -22 0 -74 -8 -115 -19 -41 -10 -103 -21 -139 -25 -36 -4 -92
-14 -125 -21 -70 -16 -217 -41 -363 -61 -56 -7 -111 -18 -122 -24 -10 -5 -27
-10 -37 -10 -29 0 -122 -52 -128 -72 -6 -16 -19 -22 -52 -21 -13 1 -18 -10
-28 -71 -5 -32 -4 -38 9 -33 8 3 17 1 19 -6 2 -7 3 -4 1 7 -1 10 1 28 5 40 11
26 74 96 88 96 6 0 21 8 34 18 13 11 45 22 72 25 26 4 60 13 75 21 15 7 61 16
102 20 41 4 101 14 134 22 32 8 60 13 62 11 9 -9 -106 -37 -177 -43 -43 -4
-83 -10 -89 -14 -18 -11 -3 -30 25 -30 29 0 43 -18 21 -26 -18 -7 -22 -34 -6
-34 6 0 10 -10 10 -22 0 -50 15 -55 167 -63 119 -7 136 -3 268 66 49 26 177
79 189 79 5 0 17 6 25 14 22 18 133 44 222 52 48 4 78 12 86 22 10 13 15 13
29 1 14 -11 18 -10 34 11 20 26 37 97 26 108 -4 3 -39 0 -79 -7 -114 -22 -161
-22 -62 -1 50 10 117 19 150 20 57 1 114 6 125 10 3 1 8 2 11 2 3 0 23 4 45 9
21 6 82 14 135 18 78 5 101 11 124 30 34 26 74 112 75 159 0 17 9 49 20 69 11
21 20 53 20 71 0 18 9 50 20 72 11 22 20 52 20 69 0 16 9 48 20 72 23 51 28
187 8 207 -8 8 -49 12 -120 12 -95 0 -110 -2 -128 -20z m83 -17 c-7 -2 -19 -2
-25 0 -7 3 -2 5 12 5 14 0 19 -2 13 -5z m147 -3 c0 -5 -4 -10 -10 -10 -5 0
-10 5 -10 10 0 6 5 10 10 10 6 0 10 -4 10 -10z m-577 -727 c-7 -2 -19 -2 -25
0 -7 3 -2 5 12 5 14 0 19 -2 13 -5z m-328 -83 c-33 -5 -72 -13 -88 -19 -15 -6
-64 -13 -110 -15 -81 -5 -81 -5 -17 4 36 5 92 15 125 23 33 9 80 15 105 15 42
-1 41 -1 -15 -8z m-325 -56 c-25 -7 -56 -13 -70 -13 -18 1 -12 5 20 14 63 18
108 18 50 -1z m-117 -21 c-13 -2 -35 -2 -50 0 -16 2 -5 4 22 4 28 0 40 -2 28
-4z"/>
<path d="M1535 4165 c-5 -11 -10 -24 -13 -30 -3 -5 3 -3 13 7 9 9 15 22 12 30
-3 9 -7 7 -12 -7z"/>
<path d="M2783 4040 c-7 -20 -18 -30 -31 -30 -11 0 -83 -31 -159 -69 -117 -59
-150 -82 -216 -144 -42 -41 -77 -79 -77 -84 0 -6 -19 -14 -42 -17 -24 -4 -50
-11 -57 -16 -16 -9 -8 -12 72 -25 20 -3 37 -9 37 -14 0 -9 103 3 205 24 41 8
96 15 122 15 78 0 114 31 142 122 12 40 30 96 38 123 26 82 33 127 18 121 -8
-3 -16 2 -19 10 -9 22 -21 17 -33 -16z m-53 -269 c0 -6 -4 -13 -10 -16 -5 -3
-10 1 -10 9 0 9 5 16 10 16 6 0 10 -4 10 -9z m-95 -51 c4 -6 -6 -10 -22 -9
-25 0 -26 1 -8 9 11 5 21 9 22 9 1 1 5 -3 8 -9z"/>
<path d="M1590 4034 c0 -14 3 -14 15 -4 8 7 15 14 15 16 0 2 -7 4 -15 4 -8 0
-15 -7 -15 -16z"/>
<path d="M1466 3754 c-8 -31 1 -84 15 -84 5 0 9 25 9 55 0 58 -13 73 -24 29z"/>
<path d="M1596 3695 c-3 -9 -19 -18 -35 -21 -16 -4 -32 -13 -35 -21 -4 -8 -13
-13 -21 -9 -8 3 -15 1 -15 -4 0 -12 -22 -9 -31 4 -16 21 -38 -5 -45 -51 -7
-52 -16 -73 -38 -96 -13 -13 -20 -37 -17 -64 2 -22 26 -14 58 20 47 49 89 77
115 77 13 0 42 9 63 20 22 11 65 23 95 26 92 9 120 14 120 24 0 6 -21 10 -47
11 -73 2 -96 11 -104 42 -14 52 -50 75 -63 42z"/>
<path d="M2155 3625 c-27 -7 -90 -16 -140 -19 -49 -4 -112 -13 -140 -21 -27
-7 -84 -17 -125 -20 -41 -4 -101 -15 -133 -26 -31 -10 -65 -19 -75 -19 -9 0
-28 -9 -42 -20 -14 -11 -30 -20 -36 -20 -6 0 -41 -31 -77 -70 l-65 -70 -7 -74
c-9 -94 2 -213 20 -220 10 -3 13 3 12 21 -2 31 18 42 26 13 6 -23 22 -24 167
-10 109 10 542 14 582 4 25 -6 27 -3 33 32 4 22 15 65 26 97 10 31 19 66 19
78 0 11 6 32 14 47 8 15 17 46 21 67 4 22 15 64 26 93 10 29 19 65 19 80 0 15
4 34 10 42 20 31 -46 39 -135 15z m-34 -508 c-13 -13 -15 11 -4 40 7 16 8 15
11 -6 2 -13 -1 -28 -7 -34z"/>
<path d="M1537 2918 c-8 -5 -7 -8 3 -9 12 -1 147 0 244 1 11 0 17 3 14 6 -9 8
-248 10 -261 2z"/>
</g>
<g fill="#1f8071">
<path d="M2710 4309 c-41 -10 -93 -19 -116 -19 -22 0 -74 -8 -115 -19 -41 -10
-103 -21 -139 -25 -36 -4 -92 -14 -125 -21 -70 -16 -217 -41 -363 -61 -56 -7
-111 -18 -122 -24 -10 -5 -27 -10 -37 -10 -29 0 -122 -52 -128 -72 -6 -16 -19
-22 -52 -21 -13 1 -18 -10 -28 -71 -5 -32 -4 -38 9 -33 8 3 17 1 19 -6 2 -7 3
-4 1 7 -1 10 1 28 5 40 11 26 74 96 88 96 6 0 21 8 34 18 13 11 45 22 72 25
26 4 60 13 75 21 15 7 61 16 102 20 41 4 101 14 134 22 32 8 60 13 62 11 9 -9
-106 -37 -177 -43 -43 -4 -83 -10 -89 -14 -18 -11 -3 -30 25 -30 29 0 43 -18
21 -26 -18 -7 -22 -34 -6 -34 6 0 10 -10 10 -22 0 -50 15 -55 167 -63 119 -7
136 -3 268 66 49 26 177 79 189 79 5 0 17 6 25 14 22 18 133 44 222 52 48 4
78 12 86 22 10 13 15 13 29 1 14 -11 18 -10 34 11 10 14 21 41 25 60 3 19 8
43 11 53 5 15 -3 17 -68 16 -40 0 -107 -9 -148 -20z m145 -5 c-117 -22 -182
-26 -85 -5 47 11 101 19 120 19 23 0 11 -5 -35 -14z m-230 -34 c-33 -5 -72
-13 -88 -19 -15 -6 -64 -13 -110 -15 -81 -5 -81 -5 -17 4 36 5 92 15 125 23
33 9 80 15 105 15 42 -1 41 -1 -15 -8z m-325 -56 c-25 -7 -56 -13 -70 -13 -18
1 -12 5 20 14 63 18 108 18 50 -1z m-117 -21 c-13 -2 -35 -2 -50 0 -16 2 -5 4
22 4 28 0 40 -2 28 -4z"/>
<path d="M1535 4165 c-5 -11 -10 -24 -13 -30 -3 -5 3 -3 13 7 9 9 15 22 12 30
-3 9 -7 7 -12 -7z"/>
<path d="M2783 4040 c-7 -20 -18 -30 -31 -30 -11 0 -83 -31 -159 -69 -117 -59
-150 -82 -216 -144 -42 -41 -77 -79 -77 -84 0 -6 -19 -14 -42 -17 -24 -4 -50
-11 -57 -16 -16 -9 -8 -12 72 -25 20 -3 37 -9 37 -14 0 -9 103 3 205 24 41 8
96 15 122 15 66 0 78 10 74 61 -2 31 1 40 11 37 8 -3 12 -18 10 -38 -4 -55 22
-20 47 62 13 40 30 96 38 123 26 82 33 127 18 121 -8 -3 -16 2 -19 10 -9 22
-21 17 -33 -16z m-148 -320 c4 -6 -6 -10 -22 -9 -25 0 -26 1 -8 9 11 5 21 9
22 9 1 1 5 -3 8 -9z"/>
<path d="M1590 4034 c0 -14 3 -14 15 -4 8 7 15 14 15 16 0 2 -7 4 -15 4 -8 0
-15 -7 -15 -16z"/>
<path d="M1466 3754 c-8 -31 1 -84 15 -84 5 0 9 25 9 55 0 58 -13 73 -24 29z"/>
<path d="M1596 3695 c-3 -9 -19 -18 -35 -21 -16 -4 -32 -13 -35 -21 -4 -8 -13
-13 -21 -9 -8 3 -15 1 -15 -4 0 -12 -22 -9 -31 4 -16 21 -38 -5 -45 -51 -7
-52 -16 -73 -38 -96 -13 -13 -20 -37 -17 -64 2 -22 26 -14 58 20 47 49 89 77
115 77 13 0 42 9 63 20 22 11 65 23 95 26 92 9 120 14 120 24 0 6 -21 10 -47
11 -73 2 -96 11 -104 42 -14 52 -50 75 -63 42z"/>
<path d="M2155 3625 c-27 -7 -90 -16 -140 -19 -49 -4 -112 -13 -140 -21 -27
-7 -84 -17 -125 -20 -41 -4 -101 -15 -133 -26 -31 -10 -65 -19 -75 -19 -9 0
-28 -9 -42 -20 -14 -11 -30 -20 -36 -20 -6 0 -41 -31 -77 -70 l-65 -70 -7 -74
c-9 -94 2 -213 20 -220 10 -3 13 3 12 21 -2 31 18 42 26 13 6 -23 22 -24 167
-10 109 10 542 14 582 4 25 -6 27 -3 33 32 4 22 15 65 26 97 10 31 19 66 19
78 0 11 6 32 14 47 8 15 17 46 21 67 4 22 15 64 26 93 10 29 19 65 19 80 0 15
4 34 10 42 20 31 -46 39 -135 15z m-34 -508 c-13 -13 -15 11 -4 40 7 16 8 15
11 -6 2 -13 -1 -28 -7 -34z"/>
<path d="M1537 2918 c-8 -5 -7 -8 3 -9 12 -1 147 0 244 1 11 0 17 3 14 6 -9 8
-248 10 -261 2z"/>
</g>
<g fill="#58b595">
<path d="M2710 4309 c-41 -10 -93 -19 -116 -19 -22 0 -74 -8 -115 -19 -41 -10
-103 -21 -139 -25 -36 -4 -92 -14 -125 -21 -70 -16 -217 -41 -363 -61 -56 -7
-111 -18 -122 -24 -10 -5 -27 -10 -37 -10 -29 0 -122 -52 -128 -72 -6 -16 -19
-22 -52 -21 -13 1 -18 -10 -28 -71 -5 -32 -4 -38 9 -33 8 3 17 1 19 -6 2 -7 3
-4 1 7 -1 10 1 28 5 40 12 30 72 92 98 100 11 4 27 13 33 21 7 8 27 15 44 15
17 1 49 8 71 16 22 9 81 22 130 28 50 7 131 21 180 30 163 31 199 37 275 48
41 5 117 19 168 29 51 10 105 19 121 19 16 0 77 9 136 21 59 11 118 19 131 16
13 -2 24 0 24 4 0 16 -143 8 -220 -12z"/>
<path d="M2855 4293 c-27 -8 -96 -18 -153 -23 -56 -5 -114 -16 -130 -23 -15
-8 -70 -17 -122 -20 -52 -3 -113 -12 -135 -20 -22 -9 -80 -18 -130 -21 -60 -4
-98 -12 -115 -24 l-25 -17 70 -6 c77 -7 179 5 210 25 11 7 62 16 113 19 51 4
103 12 114 18 12 6 78 16 147 21 71 5 139 15 155 24 16 7 37 14 48 14 11 0 18
7 18 19 0 28 -9 30 -65 14z"/>
<path d="M1535 4165 c-5 -11 -10 -24 -13 -30 -3 -5 3 -3 13 7 9 9 15 22 12 30
-3 9 -7 7 -12 -7z"/>
<path d="M1998 4123 c7 -3 16 -2 19 1 4 3 -2 6 -13 5 -11 0 -14 -3 -6 -6z"/>
<path d="M2783 4040 c-7 -20 -18 -30 -31 -30 -11 0 -83 -31 -159 -69 -117 -59
-150 -82 -216 -144 -42 -41 -77 -79 -77 -84 0 -6 -19 -14 -42 -17 -24 -4 -50
-11 -57 -16 -16 -9 -8 -12 72 -25 20 -3 37 -9 37 -14 0 -9 103 3 205 24 41 8
96 15 122 15 66 0 78 10 74 61 -2 31 1 40 11 37 8 -3 12 -18 10 -38 -4 -55 22
-20 47 62 13 40 30 96 38 123 26 82 33 127 18 121 -8 -3 -16 2 -19 10 -9 22
-21 17 -33 -16z m-148 -320 c4 -6 -6 -10 -22 -9 -25 0 -26 1 -8 9 11 5 21 9
22 9 1 1 5 -3 8 -9z"/>
<path d="M1466 3754 c-8 -31 1 -84 15 -84 5 0 9 25 9 55 0 58 -13 73 -24 29z"/>
<path d="M1596 3695 c-3 -9 -19 -18 -35 -21 -16 -4 -32 -13 -35 -21 -4 -8 -13
-13 -21 -9 -8 3 -15 1 -15 -4 0 -12 -22 -9 -31 4 -16 21 -38 -5 -45 -51 -7
-52 -16 -73 -38 -96 -13 -13 -20 -37 -17 -64 2 -22 26 -14 58 20 47 49 89 77
115 77 13 0 42 9 63 20 22 11 65 23 95 26 92 9 120 14 120 24 0 6 -21 10 -47
11 -73 2 -96 11 -104 42 -14 52 -50 75 -63 42z"/>
<path d="M2185 3619 c-16 -5 -76 -14 -133 -19 -57 -6 -131 -17 -165 -25 -34
-8 -80 -15 -102 -15 -37 0 -75 -8 -208 -40 -26 -7 -67 -23 -91 -36 -50 -28
-126 -106 -126 -129 0 -8 -8 -15 -19 -15 -15 0 -19 -10 -25 -52 -11 -92 -8
-148 8 -148 8 0 18 9 21 20 8 25 22 26 29 2 6 -17 13 -18 74 -10 69 8 293 30
512 48 69 6 133 15 143 21 13 7 23 7 31 0 24 -20 55 -1 61 38 4 20 12 50 20
67 8 18 17 49 20 70 4 22 15 62 25 89 10 28 19 70 21 95 l4 45 -35 2 c-19 1
-48 -3 -65 -8z"/>
<path d="M1537 2918 c-8 -5 -7 -8 3 -9 12 -1 147 0 244 1 11 0 17 3 14 6 -9 8
-248 10 -261 2z"/>
</g>
<g fill="#0c534e">
<path d="M2855 4293 c-27 -8 -96 -18 -153 -23 -56 -5 -114 -16 -130 -23 -15
-8 -70 -17 -122 -20 -52 -3 -113 -12 -135 -20 -22 -9 -80 -18 -130 -21 -60 -4
-98 -12 -115 -24 l-25 -17 70 -6 c77 -7 179 5 210 25 11 7 62 16 113 19 51 4
103 12 114 18 12 6 78 16 147 21 71 5 139 15 155 24 16 7 37 14 48 14 11 0 18
7 18 19 0 28 -9 30 -65 14z"/>
<path d="M1998 4123 c7 -3 16 -2 19 1 4 3 -2 6 -13 5 -11 0 -14 -3 -6 -6z"/>
<path d="M2185 3619 c-16 -5 -76 -14 -133 -19 -57 -6 -131 -17 -165 -25 -34
-8 -80 -15 -102 -15 -37 0 -75 -8 -208 -40 -26 -7 -67 -23 -91 -36 -50 -28
-126 -106 -126 -129 0 -8 -8 -15 -19 -15 -15 0 -19 -10 -25 -52 -11 -92 -8
-148 8 -148 8 0 18 9 21 20 8 25 22 26 29 2 6 -17 13 -18 74 -10 69 8 293 30
512 48 69 6 133 15 143 21 13 7 23 7 31 0 24 -20 55 -1 61 38 4 20 12 50 20
67 8 18 17 49 20 70 4 22 15 62 25 89 10 28 19 70 21 95 l4 45 -35 2 c-19 1
-48 -3 -65 -8z"/>
</g>
<g fill="#146a60">
<path d="M2855 4294 c-27 -8 -96 -19 -153 -24 -56 -5 -114 -16 -130 -23 -15
-8 -70 -17 -122 -20 -52 -3 -113 -12 -135 -20 -22 -9 -80 -18 -130 -21 -60 -4
-98 -12 -115 -24 l-25 -17 70 -6 c77 -7 179 5 210 25 11 7 62 16 113 19 51 4
103 12 114 18 12 6 78 16 147 21 71 5 139 15 155 24 16 7 38 14 50 14 15 0 17
3 9 11 -6 6 -9 18 -6 25 3 8 4 14 2 13 -2 0 -26 -7 -54 -15z"/>
<path d="M1998 4123 c7 -3 16 -2 19 1 4 3 -2 6 -13 5 -11 0 -14 -3 -6 -6z"/>
<path d="M2185 3619 c-16 -5 -76 -14 -133 -19 -57 -6 -131 -17 -165 -25 -34
-8 -80 -15 -102 -15 -55 -1 -255 -47 -210 -49 11 0 45 6 75 15 30 8 96 19 145
24 50 5 128 16 175 24 89 16 260 39 297 40 11 1 19 4 16 9 -6 10 -61 8 -98 -4z"/>
<path d="M1484 3484 c-49 -28 -124 -107 -124 -129 0 -8 -9 -15 -20 -15 -11 0
-20 -7 -20 -15 0 -8 5 -15 10 -15 6 0 10 -9 10 -20 0 -11 -7 -20 -15 -20 -12
0 -15 -14 -15 -65 0 -50 3 -65 14 -65 8 0 18 9 21 20 8 25 22 26 29 2 6 -17
13 -18 74 -10 69 8 293 30 512 48 69 6 133 15 143 21 13 7 23 7 31 0 24 -20
55 -1 61 38 4 20 13 51 21 70 17 37 12 50 -11 31 -12 -10 -18 -10 -30 0 -10 8
-19 9 -27 3 -7 -6 -71 -15 -143 -22 -71 -7 -181 -19 -244 -27 -62 -7 -117 -12
-121 -9 -4 3 -63 -2 -130 -11 -136 -18 -140 -17 -140 44 0 26 10 42 51 82 28
28 56 50 63 50 6 0 25 9 41 20 42 28 9 23 -41 -6z"/>
<path d="M2201 3424 c0 -11 3 -14 6 -6 3 7 2 16 -1 19 -3 4 -6 -2 -5 -13z"/>
</g>
</g>
</svg>
