<svg xmlns="http://www.w3.org/2000/svg" viewBox="0 0 1599 314" width="1599" height="314">
<g transform="translate(0,316) scale(0.1,-0.1)" fill="#FFFFFF" stroke="none">
<path d="M1400 3139 c-376 -44 -670 -180 -936 -432 -200 -189 -348 -439 -425
-717 -23 -81 -24 -99 -24 -405 0 -306 1 -324 24 -405 144 -519 533 -924 1041
-1084 160 -51 303 -69 500 -63 262 8 436 46 630 138 212 101 420 268 572 460
113 143 213 342 270 541 l33 113 0 300 c0 300 0 300 -29 400 -79 279 -197 483
-395 688 -250 258 -529 400 -887 451 -137 20 -285 26 -374 15z m371 -447 c19
-6 60 -16 91 -22 67 -13 208 -80 308 -146 89 -58 218 -179 281 -263 67 -87
153 -260 184 -367 50 -173 45 -500 -11 -655 -175 -486 -604 -789 -1117 -789
-98 0 -263 38 -391 89 -238 95 -470 313 -583 546 -211 440 -126 951 217 1295
240 241 536 351 886 329 56 -4 117 -11 135 -17z"/>
<path d="M2323 2167 c-34 -23 -74 -50 -90 -59 -115 -72 -141 -89 -162 -112
l-24 -26 31 -67 c45 -100 55 -149 50 -265 -5 -124 -33 -211 -104 -325 -78
-126 -233 -276 -342 -333 -22 -12 -46 -28 -53 -36 -7 -8 -29 -22 -48 -30 -31
-13 -34 -17 -19 -25 13 -7 31 -4 64 11 26 11 55 20 65 20 10 0 57 21 105 48
98 52 238 177 310 275 70 94 134 290 134 408 0 58 19 66 190 74 171 7 180 9
180 39 0 45 -52 204 -96 291 -55 108 -89 155 -112 154 -9 0 -45 -19 -79 -42z"/>
<path d="M2333 1663 c-24 -5 -26 -8 -63 -170 -46 -200 -152 -357 -332 -494
-70 -54 -216 -129 -250 -129 -8 0 -32 -9 -53 -21 -37 -19 -62 -22 -294 -28
-176 -4 -256 -9 -258 -17 -7 -22 135 -56 266 -64 178 -11 329 1 416 35 176 67
323 171 420 297 65 85 116 138 133 138 16 0 112 -61 131 -83 37 -45 83 5 125
138 38 119 56 290 40 374 l-6 31 -127 -1 c-69 -1 -136 -4 -148 -6z"/>
<path d="M2255 1075 c-107 -141 -246 -254 -384 -315 -163 -71 -171 -73 -376
-77 -232 -6 -289 4 -459 79 -103 46 -285 174 -350 247 -39 44 -64 11 -29 -39
66 -97 230 -248 333 -307 25 -14 56 -33 70 -42 41 -26 139 -61 245 -86 144
-35 343 -35 482 0 105 26 197 59 252 90 156 90 283 199 378 323 56 73 60 82
47 100 -11 17 -135 102 -147 102 -2 0 -30 -34 -62 -75z"/>
<path d="M4532 2389 c-317 -53 -508 -324 -422 -601 52 -167 134 -233 420 -335
223 -79 262 -109 268 -206 4 -57 2 -66 -24 -96 -62 -74 -186 -93 -309 -46 -58
21 -119 56 -135 75 -15 18 -57 40 -77 40 -29 0 -213 -203 -213 -236 0 -31 55
-74 165 -129 134 -67 192 -79 380 -79 175 -1 238 11 342 61 69 34 162 118 198
179 102 174 91 398 -27 533 -61 70 -183 142 -298 177 -222 66 -330 132 -330
202 0 14 9 45 20 68 26 52 87 84 175 91 74 6 173 -28 251 -87 l51 -38 70 71
c82 85 153 167 153 177 0 30 -159 126 -260 158 -89 28 -290 39 -398 21z"/>
<path d="M10102 2390 c-165 -30 -310 -106 -428 -224 -96 -96 -151 -186 -195
-316 -27 -80 -33 -114 -37 -215 -9 -242 52 -428 197 -603 81 -97 250 -201 386
-237 80 -22 308 -30 420 -16 104 13 226 66 333 145 85 63 93 84 54 133 -48 61
-190 193 -208 193 -8 0 -36 -18 -62 -39 -26 -22 -72 -51 -102 -65 -49 -23 -68
-26 -168 -26 -98 0 -121 3 -175 25 -74 31 -167 123 -219 219 l-33 61 0 160 c0
156 1 161 28 215 63 122 170 215 281 245 129 35 284 5 380 -75 26 -22 51 -40
55 -40 8 0 251 243 251 252 0 3 -29 29 -64 57 -77 62 -193 117 -284 137 -85
18 -340 26 -410 14z"/>
<path d="M11785 2390 c-217 -35 -427 -176 -544 -367 -18 -28 -46 -89 -63 -135
-30 -79 -32 -92 -36 -256 -5 -208 6 -277 59 -390 93 -199 228 -330 427 -412
113 -48 220 -63 387 -57 171 6 263 28 395 94 154 77 288 224 356 390 27 68 64
263 64 338 0 70 -25 214 -52 300 -29 91 -120 226 -204 304 -74 67 -228 150
-328 176 -72 18 -376 28 -461 15z m380 -366 c82 -40 174 -134 216 -220 33 -68
33 -70 34 -209 0 -137 -1 -142 -33 -217 -47 -109 -103 -168 -210 -220 -86 -43
-86 -43 -193 -42 -98 1 -113 4 -173 32 -84 39 -177 127 -211 198 -75 159 -70
371 11 511 47 79 168 171 258 194 17 5 78 7 136 5 92 -3 113 -7 165 -32z"/>
<path d="M5700 2362 l-45 -7 -8 -55 c-4 -30 -6 -373 -5 -762 2 -564 6 -710 16
-720 19 -19 329 -19 341 1 23 36 24 1494 1 1530 -8 14 -230 23 -300 13z"/>
<path d="M6370 2318 c-17 -74 -10 -246 10 -259 8 -5 78 -9 155 -9 189 0 243
-7 258 -34 9 -15 13 -174 17 -603 4 -459 8 -585 18 -595 19 -19 325 -19 344 0
10 10 14 138 18 607 3 326 8 597 12 601 11 10 179 23 310 24 l107 0 3 103 c4
146 -1 194 -20 203 -10 4 -288 9 -618 12 l-602 5 -12 -55z"/>
<path d="M8123 2361 c-67 -3 -125 -10 -130 -14 -13 -14 -10 -1514 3 -1527 16
-16 637 -25 877 -13 138 7 180 12 188 23 5 8 8 76 7 150 l-3 135 -344 6 c-324
5 -344 6 -357 24 -11 15 -14 51 -12 155 l3 135 285 7 c351 9 347 9 356 53 8
45 1 231 -9 242 -5 4 -143 10 -307 13 -226 4 -302 8 -312 18 -16 16 -24 240
-9 261 8 12 68 16 330 20 243 5 323 9 333 19 18 18 18 270 -1 281 -29 18 -596
25 -898 12z"/>
<path d="M13343 2363 c-29 -2 -57 -11 -64 -19 -10 -13 -13 -171 -13 -760 0
-694 1 -745 17 -762 15 -15 39 -17 167 -17 109 0 153 4 162 13 10 10 14 81 18
285 4 239 7 276 23 300 38 58 104 26 161 -76 18 -34 82 -152 142 -262 59 -109
120 -213 135 -230 l27 -30 186 0 c128 0 189 4 197 12 18 18 1 54 -137 279
-204 335 -232 394 -186 394 28 0 132 71 176 120 82 91 120 233 98 363 -18 104
-51 166 -125 240 -85 84 -173 122 -314 136 -108 11 -587 21 -670 14z m587
-314 c93 -21 150 -87 150 -174 0 -115 -115 -175 -335 -175 -38 0 -76 4 -83 8
-21 14 -32 72 -31 162 1 134 9 173 39 181 39 11 210 10 260 -2z"/>
<path d="M15053 2361 c-67 -3 -125 -10 -130 -14 -10 -11 -17 -1109 -8 -1343
l7 -184 27 -7 c37 -10 1008 -10 1018 0 4 5 10 68 11 141 3 109 1 135 -11 148
-14 13 -65 16 -336 20 -238 3 -324 7 -334 17 -8 8 -13 57 -15 151 -3 139 -3
139 20 144 13 3 152 7 311 9 211 2 290 6 300 16 14 14 18 264 4 278 -5 4 -143
10 -306 13 -232 4 -302 8 -314 19 -14 11 -17 35 -17 142 l0 129 73 0 c205 2
590 19 599 28 16 16 12 262 -5 279 -11 11 -84 15 -393 17 -208 2 -434 1 -501
-3z"/>
</g>
</svg>
