<svg xmlns="http://www.w3.org/2000/svg" viewBox="0 0 1599 384" width="1599" height="384">
<g transform="translate(0,385) scale(0.1,-0.1)" fill="#000000" stroke="none">
<path d="M2106 3818 c-9 -13 -13 -32 -10 -47 5 -21 3 -23 -6 -11 -9 12 -10 10
-5 -13 7 -32 -11 -141 -28 -172 -6 -11 -10 -23 -9 -27 1 -5 -2 -8 -7 -8 -9 0
-25 -56 -22 -79 1 -7 -2 -10 -8 -6 -6 3 -14 -2 -18 -12 -3 -10 -15 -29 -27
-42 -12 -14 -14 -21 -6 -16 10 6 9 2 -3 -11 -10 -10 -33 -40 -52 -65 -31 -43
-124 -119 -144 -119 -5 0 -14 -7 -21 -15 -7 -8 -37 -27 -69 -42 -31 -16 -57
-31 -59 -35 -2 -4 -10 -4 -18 -1 -8 3 -14 1 -14 -4 0 -5 -8 -9 -17 -10 -10 -1
-43 -7 -74 -15 -30 -8 -73 -13 -95 -12 -36 3 -37 2 -9 -5 36 -10 33 -12 -22
-14 -23 -1 -47 -7 -52 -12 -5 -6 -13 -106 -17 -222 l-7 -213 -88 0 c-51 0 -91
-4 -94 -11 -4 -6 -13 -8 -20 -5 -7 2 -30 -4 -51 -15 -21 -10 -55 -19 -75 -19
-23 0 -42 -7 -54 -20 -11 -12 -31 -20 -52 -20 -18 0 -33 -4 -33 -10 0 -5 -6
-7 -13 -4 -8 3 -20 -2 -27 -11 -7 -8 -21 -15 -31 -15 -11 0 -19 -4 -19 -10 0
-5 -7 -6 -17 -3 -10 4 -14 2 -10 -4 4 -6 -12 -19 -35 -29 -84 -38 -241 -165
-314 -255 -27 -33 -68 -84 -91 -112 -24 -28 -43 -56 -43 -62 0 -6 -11 -26 -25
-45 -14 -19 -25 -41 -25 -50 0 -10 -9 -27 -20 -40 -11 -13 -20 -31 -20 -40 0
-10 -9 -29 -20 -43 -11 -14 -23 -47 -26 -74 -4 -26 -13 -55 -21 -64 -8 -9 -11
-24 -7 -34 5 -11 3 -16 -3 -12 -12 7 -29 -182 -28 -303 2 -114 15 -249 26
-255 4 -3 6 -12 3 -19 -3 -8 1 -27 9 -43 8 -15 18 -46 21 -67 4 -22 17 -58 29
-80 11 -23 25 -50 31 -61 33 -65 88 -158 126 -213 42 -61 208 -242 195 -212
-4 8 5 0 20 -18 14 -17 46 -43 70 -57 24 -14 49 -32 55 -40 7 -8 23 -15 36
-15 12 0 30 -7 38 -16 24 -23 123 -74 145 -74 10 0 24 -6 30 -14 7 -8 22 -12
34 -9 18 4 19 3 7 -6 -12 -8 -5 -11 30 -11 27 0 58 -8 78 -20 17 -11 42 -20
55 -21 43 -3 422 -2 472 1 46 2 48 3 20 11 -26 7 -24 8 13 5 23 -2 42 -1 42 3
0 4 6 8 13 9 63 7 106 16 102 22 -3 4 2 11 11 14 24 9 31 7 14 -4 -8 -5 -10
-10 -5 -10 6 1 19 7 29 15 11 8 29 15 40 16 12 0 15 3 8 6 -16 6 -6 23 14 23
9 0 12 -5 8 -12 -7 -12 35 19 46 34 3 4 19 12 35 17 28 10 29 10 11 -4 -11 -8
-16 -15 -10 -15 5 0 26 16 47 36 20 19 37 32 37 28 0 -4 7 1 16 12 8 10 12 13
8 5 -4 -9 -3 -12 4 -7 6 4 9 13 5 21 -3 10 1 15 12 15 10 0 13 -4 9 -13 -12
-18 92 71 145 125 70 72 158 172 143 163 -11 -6 -12 -3 -3 14 7 11 14 21 17
21 3 0 2 -5 -1 -10 -3 -6 -4 -10 -1 -10 3 0 27 34 54 75 48 72 68 116 63 143
-1 7 5 15 12 18 8 3 18 25 21 49 4 25 13 46 22 49 8 3 12 11 8 17 -3 6 -2 14
4 18 5 3 13 44 16 91 8 94 17 120 27 75 4 -16 7 26 7 95 0 69 -2 119 -5 113
-7 -20 -31 -15 -43 7 -10 19 -21 20 -208 20 l-198 0 -30 -32 c-16 -17 -23 -28
-16 -24 17 10 16 -64 -3 -87 -7 -11 -17 -38 -20 -60 -4 -23 -14 -53 -22 -65
-8 -13 -12 -26 -9 -30 3 -3 6 1 6 8 0 7 2 11 5 8 8 -8 -6 -39 -15 -33 -9 6
-25 -51 -21 -76 1 -9 -6 -22 -15 -30 -16 -13 -16 -12 -5 9 6 12 9 22 7 22 -3
0 -12 -13 -21 -30 -9 -16 -13 -30 -10 -30 7 0 0 -9 -52 -69 -21 -24 -37 -47
-35 -50 1 -3 -2 -6 -7 -6 -13 0 -26 -14 -26 -28 0 -7 -6 -12 -13 -12 -6 0 -30
-17 -52 -38 -24 -22 -46 -35 -53 -31 -7 4 -9 4 -5 -1 9 -9 -9 -35 -24 -35 -6
0 -4 8 3 17 8 10 -7 1 -32 -20 -25 -20 -52 -37 -60 -37 -11 0 -11 2 1 10 8 5
10 10 5 10 -6 0 -18 -9 -28 -20 -13 -16 -29 -20 -74 -20 -36 0 -53 -4 -45 -9
10 -6 9 -10 -7 -14 -14 -3 -19 -1 -14 6 3 6 -4 3 -18 -6 -32 -23 -200 -24
-243 -2 -15 8 -32 12 -37 9 -5 -3 -9 0 -9 5 0 6 -17 11 -39 11 -24 0 -48 8
-65 21 -14 11 -29 18 -33 16 -5 -2 -21 4 -38 14 -16 10 -45 25 -63 33 -18 8
-80 61 -138 118 -96 93 -110 111 -154 203 -43 90 -63 141 -64 170 -1 6 -6 16
-13 22 -29 31 -29 233 0 290 8 15 18 51 22 80 4 29 15 62 26 74 10 12 19 32
19 44 0 12 9 30 20 40 11 10 20 27 20 37 0 25 174 204 230 236 25 14 58 36 73
49 16 13 41 23 55 23 15 0 41 9 57 20 23 15 48 20 110 21 58 0 74 3 60 10 -16
7 -14 9 12 6 19 -2 30 1 26 7 -4 5 0 7 9 3 9 -3 24 4 37 16 18 21 21 39 27
224 l7 201 30 6 c16 3 50 6 76 6 25 0 66 9 90 20 24 11 63 20 87 20 24 0 44 4
44 10 0 5 6 7 13 4 8 -3 20 2 27 11 7 8 23 15 36 15 12 0 26 5 29 10 4 6 11 8
16 5 5 -4 21 3 35 14 15 12 35 21 46 21 10 0 33 15 51 34 18 18 45 37 60 40
16 4 38 17 50 29 12 13 18 16 12 7 -5 -9 2 -3 17 13 14 16 31 26 36 23 13 -8
201 191 250 264 21 30 49 71 64 90 29 39 71 130 60 130 -4 0 0 5 10 10 9 6 19
28 23 49 4 22 13 45 21 52 9 7 12 20 8 32 -4 13 -2 17 5 13 7 -5 11 6 11 31 0
21 6 48 14 59 8 11 14 36 14 55 -1 19 2 68 7 110 4 42 5 88 1 103 l-6 26 -235
0 c-229 0 -234 0 -249 -22z m461 -10 c-3 -8 -6 -5 -6 6 -1 11 2 17 5 13 3 -3
4 -12 1 -19z m-427 -962 c0 -2 -8 -10 -17 -17 -16 -13 -17 -12 -4 4 13 16 21
21 21 13z m-1360 -2111 c19 -19 32 -35 29 -35 -3 0 -20 16 -39 35 -19 19 -32
35 -29 35 3 0 20 -16 39 -35z m1672 -37 c-7 -7 -12 -8 -12 -2 0 14 12 26 19
19 2 -3 -1 -11 -7 -17z"/>
<path d="M3387 3833 c-3 -5 -8 -30 -12 -58 -3 -27 -13 -69 -22 -93 -8 -24 -12
-46 -9 -49 3 -4 6 2 6 12 0 10 3 16 6 12 9 -9 -6 -48 -17 -42 -5 4 -9 -9 -9
-28 0 -21 -7 -41 -20 -52 -11 -10 -20 -28 -20 -40 0 -12 -10 -35 -22 -51 -14
-18 -16 -24 -5 -15 10 8 17 9 17 3 0 -6 -6 -15 -13 -19 -8 -4 -29 -26 -48 -47
-19 -22 -28 -37 -21 -32 15 9 15 1 1 -25 -6 -11 -17 -18 -24 -15 -7 2 -21 -5
-32 -17 -16 -19 -16 -20 0 -8 9 7 17 10 17 5 0 -9 -64 -64 -75 -64 -3 0 -3 6
1 13 4 6 -6 0 -22 -14 -16 -15 -44 -34 -61 -43 -18 -9 -33 -19 -33 -22 0 -3 5
-2 11 2 7 4 10 1 7 -7 -3 -8 -13 -16 -23 -17 -12 -3 -15 0 -10 10 3 7 0 5 -8
-4 -8 -10 -24 -18 -36 -18 -11 0 -21 -5 -21 -11 0 -6 -9 -8 -21 -4 -15 5 -19
4 -14 -5 4 -7 2 -10 -6 -9 -8 1 -34 -3 -59 -11 -25 -7 -72 -13 -105 -13 -37 0
-46 -2 -22 -4 49 -5 38 -23 -14 -23 -28 0 -38 4 -33 12 4 7 3 8 -5 4 -6 -4 -9
-11 -6 -16 3 -5 1 -11 -5 -15 -5 -3 -10 -15 -10 -26 0 -10 -4 -19 -9 -19 -18
0 -34 -137 -29 -253 3 -93 1 -117 -10 -122 -7 -3 -66 -5 -130 -6 -64 -1 -155
-4 -201 -7 l-84 -7 -15 -55 c-8 -30 -15 -63 -15 -72 -1 -10 -5 -18 -9 -18 -4
0 -8 -15 -8 -32 -1 -18 -8 -51 -16 -73 -9 -22 -16 -48 -17 -57 -1 -10 -5 -18
-9 -18 -4 0 -8 -8 -8 -19 0 -10 -9 -30 -20 -44 -11 -14 -20 -30 -20 -36 0 -6
-18 -31 -40 -55 -22 -24 -40 -48 -40 -53 0 -12 -63 -83 -73 -83 -5 0 -5 6 -1
13 4 6 -2 3 -14 -7 -24 -21 -29 -32 -10 -20 7 5 8 3 4 -5 -5 -7 -10 -10 -13
-7 -3 3 -19 -6 -35 -19 -16 -14 -34 -25 -40 -25 -5 0 -21 -9 -35 -20 -14 -11
-36 -20 -48 -20 -12 0 -30 -9 -40 -20 -13 -14 -31 -20 -61 -20 -24 0 -46 -5
-49 -10 -4 -6 -12 -10 -18 -9 -7 1 -29 -5 -49 -14 -21 -10 -58 -17 -83 -17
l-45 0 0 -235 0 -235 155 0 c85 0 155 4 155 8 0 5 6 9 13 10 48 5 126 28 146
44 13 10 36 18 51 18 15 0 35 9 45 20 10 11 26 20 37 20 10 0 17 5 16 11 -2 6
3 14 11 17 8 3 11 0 7 -7 -9 -15 60 28 90 56 13 12 24 19 24 15 0 -3 19 12 43
34 23 22 61 53 84 68 42 28 159 163 220 254 17 26 41 59 52 74 12 14 21 35 21
46 0 10 9 27 19 36 10 10 22 33 26 53 3 20 15 52 26 72 10 20 19 46 19 59 0
12 7 39 16 60 10 22 18 80 21 144 3 58 9 111 13 118 4 6 45 15 91 19 46 5 76
9 66 10 -37 2 -4 22 36 21 65 -1 164 12 145 19 -13 4 -15 10 -7 21 8 13 11 13
23 -3 12 -15 15 -15 26 -2 7 8 23 15 36 15 12 0 26 5 29 10 4 6 10 8 15 5 5
-3 30 9 56 27 26 17 54 32 63 33 19 2 101 43 101 51 0 3 -5 2 -11 -2 -6 -3 -3
5 6 20 10 14 24 26 33 26 12 0 12 -4 -4 -22 -10 -13 7 1 38 30 31 28 60 52 65
52 4 0 28 19 54 43 25 23 36 35 24 27 -12 -8 -5 1 15 20 32 31 110 122 150
174 13 18 13 19 0 12 -13 -7 -13 -6 0 6 23 20 70 92 70 108 0 7 8 22 18 33 9
11 11 17 5 13 -7 -4 -13 -2 -13 3 0 6 6 11 14 11 14 0 30 50 27 88 -2 12 2 22
8 22 6 0 16 18 22 40 7 22 18 45 26 51 7 6 13 16 13 22 0 6 -7 2 -16 -9 -15
-19 -15 -19 -10 1 14 59 18 68 27 54 5 -9 9 16 10 66 1 44 2 98 3 120 1 22 -3
50 -8 63 -9 22 -10 22 -237 22 -125 0 -230 -3 -232 -7z m33 -18 c0 -8 -4 -15
-10 -15 -5 0 -10 7 -10 15 0 8 5 15 10 15 6 0 10 -7 10 -15z m-109 -318 c-8
-8 -11 -7 -11 4 0 20 13 34 18 19 3 -7 -1 -17 -7 -23z m391 -299 c-7 -7 -12
-8 -12 -2 0 6 3 14 7 17 3 4 9 5 12 2 2 -3 -1 -11 -7 -17z m-1759 -1138 c-3
-11 -9 -17 -15 -14 -5 3 -4 12 3 20 16 19 18 18 12 -6z m-296 -226 c-3 -3 -12
-4 -19 -1 -8 3 -5 6 6 6 11 1 17 -2 13 -5z m208 -444 c-3 -5 -13 -10 -21 -10
-8 0 -14 5 -14 10 0 6 9 10 21 10 11 0 17 -4 14 -10z"/>
<path d="M2569 3013 c-13 -16 -12 -17 4 -4 9 7 17 15 17 17 0 8 -8 3 -21 -13z"/>
<path d="M1963 2720 c-13 -5 -23 -11 -23 -14 0 -7 40 6 46 15 6 10 6 10 -23
-1z"/>
<path d="M3170 2680 c-9 -6 -10 -10 -3 -10 6 0 15 5 18 10 8 12 4 12 -15 0z"/>
<path d="M4610 2581 c-25 -4 -58 -15 -75 -24 -16 -9 -40 -17 -53 -17 -12 0
-39 -9 -59 -20 -21 -11 -45 -20 -54 -20 -9 0 -22 -7 -29 -14 -6 -8 -31 -24
-55 -36 -100 -48 -370 -350 -392 -438 -3 -15 -14 -45 -24 -67 -10 -22 -19 -55
-19 -73 0 -18 -9 -50 -20 -72 -17 -34 -20 -59 -20 -190 0 -131 3 -156 20 -190
11 -22 20 -55 20 -73 0 -19 9 -46 20 -60 11 -14 20 -32 20 -40 0 -23 79 -175
103 -199 12 -11 15 -17 7 -13 -26 14 163 -175 212 -211 105 -78 236 -138 323
-149 28 -4 61 -14 75 -23 36 -25 324 -25 361 -1 13 9 49 20 79 23 94 12 247
91 353 183 97 83 227 229 227 254 0 10 9 26 19 36 11 10 23 32 27 48 4 17 15
41 26 54 10 13 18 40 18 61 0 23 8 46 20 60 19 22 20 37 20 239 -1 193 -3 220
-20 256 -11 22 -19 50 -20 61 0 12 -8 32 -19 45 -10 13 -22 39 -26 58 -17 78
-211 317 -304 373 -20 12 -39 27 -44 34 -4 7 -22 16 -40 19 -17 4 -40 16 -50
26 -10 11 -28 19 -41 19 -13 0 -31 9 -41 20 -10 11 -28 20 -39 20 -12 0 -41
10 -66 21 -39 18 -69 21 -220 24 -96 2 -195 0 -220 -4z m288 -392 c144 -35
204 -68 297 -162 93 -94 137 -171 160 -282 59 -280 -64 -534 -323 -669 l-93
-48 -153 3 -153 4 -99 49 c-79 39 -113 63 -169 120 -124 126 -172 258 -163
449 6 120 29 189 95 289 83 127 202 206 369 247 102 25 128 25 232 0z"/>
<path d="M8520 2480 c-8 -6 -33 -15 -55 -21 -50 -13 -102 -62 -111 -103 -3
-17 -12 -42 -19 -56 -18 -37 5 -106 56 -164 51 -58 85 -76 144 -76 118 0 214
95 215 213 0 58 -10 79 -64 135 -29 30 -52 44 -78 49 -21 3 -43 12 -49 19 -14
16 -19 17 -39 4z"/>
<path d="M11195 2480 c-3 -5 -25 -14 -48 -21 -52 -13 -91 -49 -123 -111 -34
-68 -31 -104 16 -176 22 -34 44 -62 50 -62 5 0 20 -10 33 -22 19 -20 33 -23
93 -23 54 0 75 4 88 18 10 9 30 24 46 32 15 8 33 28 40 45 7 16 16 30 21 30
16 0 27 68 18 111 -18 78 -94 159 -151 159 -8 0 -23 7 -34 15 -22 17 -40 19
-49 5z"/>
<path d="M14260 2421 c-20 -4 -41 -11 -48 -15 -9 -5 -12 -203 -12 -870 l0
-863 21 -19 c19 -17 37 -19 156 -19 130 0 136 1 154 24 18 22 19 51 19 886 l0
863 -22 6 c-37 10 -230 16 -268 7z"/>
<path d="M7600 2261 c-68 -21 -70 -26 -70 -149 0 -111 -1 -114 -28 -142 -24
-24 -39 -29 -105 -35 l-77 -7 0 -148 0 -147 75 -5 c42 -3 78 -8 81 -11 3 -3 9
-140 13 -304 6 -234 11 -304 23 -328 8 -16 18 -45 21 -63 16 -81 154 -221 258
-262 54 -21 81 -25 170 -25 100 0 108 2 141 27 l36 27 1 124 c2 151 -2 158
-114 168 -75 7 -118 26 -136 61 -7 14 -8 110 -3 298 l7 278 51 6 c28 3 84 6
124 6 l72 0 0 148 0 148 -40 23 c-35 19 -52 22 -120 19 -44 -2 -80 1 -80 5 0
5 -5 5 -11 1 -8 -4 -9 1 -4 16 5 16 4 20 -4 15 -9 -5 -12 22 -10 106 1 107 0
113 -22 130 -13 10 -30 17 -36 14 -7 -2 -13 0 -13 5 0 12 -163 12 -200 1z
m277 -873 c-2 -35 -3 -9 -3 57 0 66 1 94 3 63 2 -32 2 -86 0 -120z"/>
<path d="M5995 1965 c-71 -39 -65 45 -65 -887 l0 -838 33 -20 c28 -17 50 -20
168 -20 l137 0 17 27 c15 23 19 54 21 183 4 193 13 298 26 306 5 3 19 -3 31
-14 12 -11 38 -25 57 -30 19 -6 55 -18 80 -27 54 -20 218 -17 243 4 9 7 39 19
67 26 29 8 60 21 69 29 10 9 21 16 24 16 4 0 34 21 66 48 73 58 170 175 178
213 3 15 14 36 24 45 12 11 19 31 19 53 0 20 9 56 20 80 16 34 20 65 20 146 0
81 -4 112 -20 146 -11 24 -20 60 -20 80 0 23 -7 42 -20 54 -11 10 -20 28 -20
40 0 35 -132 195 -183 221 -15 8 -37 24 -48 35 -25 25 -96 58 -124 59 -11 0
-33 9 -50 20 -44 29 -214 29 -268 0 -20 -11 -47 -20 -59 -20 -27 -1 -140 -55
-132 -63 3 -3 -4 -3 -16 0 -12 3 -26 16 -32 28 -6 13 -24 33 -42 46 -41 31
-155 39 -201 14z m677 -374 c65 -28 122 -82 149 -144 19 -42 23 -70 23 -142 0
-103 -21 -165 -77 -224 -101 -106 -289 -110 -395 -8 -57 54 -75 101 -80 203
-7 158 36 249 144 303 91 46 151 49 236 12z"/>
<path d="M8430 1969 c0 -6 -6 -9 -14 -6 -8 3 -26 -3 -40 -14 l-26 -20 0 -612
c0 -587 1 -613 19 -644 17 -27 27 -32 76 -38 31 -4 94 -5 141 -3 139 7 126
-44 136 550 10 542 3 704 -28 757 -10 17 -24 29 -31 27 -7 -3 -15 -1 -18 4 -9
14 -215 13 -215 -1z"/>
<path d="M9025 1964 c-71 -37 -65 20 -65 -660 l0 -612 31 -26 c21 -18 38 -25
51 -20 14 4 18 2 14 -5 -5 -8 30 -11 120 -11 70 0 124 3 121 7 -4 3 2 12 12
20 15 10 19 22 15 51 -3 29 -2 32 5 17 6 -13 8 36 4 143 -4 113 -3 169 5 185
8 14 13 102 14 244 3 221 3 222 28 248 40 43 97 75 134 75 46 0 136 -46 136
-69 0 -10 8 -29 19 -42 17 -22 19 -56 25 -424 6 -314 10 -405 21 -421 18 -28
53 -34 195 -34 l118 0 17 36 c14 31 18 92 27 413 5 207 14 392 19 412 11 44
89 125 129 134 61 13 124 -30 176 -121 l34 -61 0 -381 c0 -363 1 -383 19 -401
25 -25 107 -35 219 -28 136 8 126 -37 120 523 -5 443 -7 472 -25 510 -11 21
-23 50 -26 64 -3 14 -37 57 -75 95 -96 97 -104 104 -141 111 -18 4 -49 15 -69
25 -52 27 -200 26 -261 -1 -24 -11 -48 -20 -55 -20 -17 0 -122 -54 -140 -73
-10 -9 -26 -17 -36 -17 -22 0 -97 38 -136 69 -15 12 -35 21 -45 21 -11 0 -36
9 -56 20 -29 16 -57 20 -124 20 -47 0 -89 -3 -93 -7 -3 -4 -13 -8 -20 -9 -7
-1 -48 -18 -89 -38 -42 -20 -83 -36 -92 -36 -8 0 -33 18 -55 40 -27 27 -45 38
-56 33 -12 -4 -15 -3 -10 5 11 19 -122 15 -159 -4z"/>
<path d="M11090 1973 c-8 -3 -23 -12 -32 -21 -17 -14 -18 -58 -18 -647 0 -605
1 -633 19 -649 37 -34 282 -34 316 0 13 13 15 99 15 646 0 706 4 670 -68 662
-31 -3 -33 -2 -12 5 17 6 -11 9 -90 9 -63 0 -122 -2 -130 -5z"/>
<path d="M11613 1958 c-38 -42 -43 -65 -43 -187 l0 -120 28 -21 c27 -20 40
-21 260 -20 150 0 232 -3 232 -9 0 -6 -12 -9 -27 -7 -16 2 -20 1 -10 -1 27 -7
20 -30 -25 -79 -24 -26 -59 -70 -78 -99 -19 -30 -62 -85 -95 -123 -87 -100
-228 -281 -253 -325 -12 -21 -20 -43 -17 -48 4 -5 1 -9 -4 -9 -13 0 -16 -192
-3 -204 4 -4 7 -11 7 -14 0 -4 9 -19 19 -34 l18 -28 427 1 c438 0 526 5 542
30 5 8 9 82 9 165 l0 151 -152 6 c-83 4 -183 7 -222 7 -83 0 -146 15 -146 35
0 8 24 40 53 72 29 32 79 92 110 133 32 41 72 94 90 118 17 23 58 75 90 115
32 39 79 103 105 141 l47 69 3 116 c3 101 1 120 -16 147 -18 28 -26 31 -88 37
-38 4 -243 7 -455 7 l-386 0 -20 -22z m50 5 c-7 -2 -19 -2 -25 0 -7 3 -2 5 12
5 14 0 19 -2 13 -5z"/>
<path d="M13227 1960 c-20 -11 -45 -20 -54 -20 -28 0 -125 -49 -140 -70 -8
-11 -21 -20 -29 -20 -22 0 -112 -88 -141 -137 -14 -24 -29 -43 -33 -43 -11 0
-60 -100 -60 -123 0 -10 -9 -30 -20 -44 -18 -23 -20 -41 -20 -197 0 -147 3
-176 18 -206 11 -19 22 -47 25 -61 6 -25 75 -127 134 -198 45 -55 203 -156
260 -167 21 -4 48 -14 61 -22 37 -24 215 -29 272 -7 25 9 63 21 85 27 22 6 49
19 61 29 11 11 28 19 38 19 10 0 66 48 125 108 80 79 112 119 126 154 21 57
16 74 -30 93 -63 27 -309 12 -345 -20 -79 -72 -211 -87 -303 -35 -63 35 -135
106 -122 119 6 5 188 11 422 13 297 2 415 6 424 15 30 30 19 346 -15 398 -7
11 -18 36 -24 55 -13 39 -110 154 -188 224 -54 48 -136 96 -164 96 -10 0 -37
9 -61 20 -64 29 -248 29 -302 0z m234 -356 c67 -20 163 -108 157 -145 l-3 -23
-235 3 c-129 1 -239 6 -244 11 -14 14 52 98 100 126 78 46 139 53 225 28z"/>
<path d="M14750 1970 c0 -5 -6 -7 -13 -4 -19 7 -57 -33 -57 -61 0 -14 9 -39
20 -57 11 -18 20 -41 20 -50 0 -17 16 -55 66 -163 13 -28 24 -59 24 -70 0 -11
9 -33 20 -50 11 -16 20 -42 20 -56 0 -14 9 -34 19 -43 10 -9 21 -29 24 -44 5
-30 40 -117 68 -173 11 -20 19 -44 19 -53 0 -9 9 -34 20 -56 11 -22 20 -48 20
-58 0 -10 11 -33 25 -52 14 -19 25 -45 25 -59 0 -14 9 -39 20 -56 11 -16 20
-42 20 -56 0 -14 9 -34 20 -44 11 -10 20 -23 20 -30 0 -7 -22 -50 -48 -96 -42
-73 -52 -84 -83 -91 -19 -3 -55 -19 -81 -33 -40 -22 -50 -34 -59 -68 -13 -50
-7 -180 12 -220 l12 -27 112 0 c94 0 116 3 136 18 13 11 36 22 50 25 63 16
259 274 259 342 0 12 9 34 20 48 11 14 23 39 26 57 4 17 15 48 25 68 11 20 19
46 19 59 0 12 7 26 15 30 8 5 21 31 29 58 20 70 43 133 65 180 11 22 29 65 39
95 39 110 45 126 60 170 8 25 24 56 34 69 10 13 18 32 18 43 0 10 9 36 20 58
11 22 20 50 20 63 0 13 9 32 19 41 10 10 22 32 25 50 3 18 15 50 26 71 11 22
20 48 20 60 0 11 9 34 20 50 11 17 20 39 20 51 0 29 -42 66 -65 58 -13 -5 -16
-4 -11 4 5 9 -23 12 -108 12 -67 0 -117 -4 -121 -10 -4 -6 -10 -8 -15 -5 -27
17 -120 -142 -120 -205 0 -11 -9 -34 -20 -52 -11 -18 -20 -47 -20 -63 0 -17
-7 -41 -17 -54 -9 -13 -20 -44 -25 -69 -4 -25 -15 -54 -24 -64 -10 -10 -19
-40 -22 -67 -3 -32 -11 -56 -23 -67 -11 -9 -19 -25 -19 -35 0 -28 -11 -49 -25
-49 -17 0 -55 61 -55 87 0 11 -8 28 -19 37 -10 9 -21 36 -25 59 -4 23 -15 60
-25 82 -10 22 -24 56 -31 75 -28 83 -34 99 -57 165 -14 39 -29 77 -34 85 -5 8
-14 26 -20 40 -28 64 -37 76 -69 92 -27 14 -60 18 -147 18 -66 0 -113 -4 -113
-10z"/>
<path d="M12 1300 c0 -14 2 -19 5 -12 2 6 2 18 0 25 -3 6 -5 1 -5 -13z"/>
<path d="M2081 1244 c0 -11 3 -14 6 -6 3 7 2 16 -1 19 -3 4 -6 -2 -5 -13z"/>
<path d="M2576 1043 c-6 -14 -5 -15 5 -6 7 7 10 15 7 18 -3 3 -9 -2 -12 -12z"/>
</g>
</svg>
